<svg xmlns="http://www.w3.org/2000/svg" xmlns:xlink="http://www.w3.org/1999/xlink" width="2000" zoomAndPan="magnify" viewBox="0 0 1500 1499.999933" height="2000" preserveAspectRatio="xMidYMid meet"><defs><g></g><clipPath id="d769fef428"><path d="M 214 578.308594 L 446.523438 578.308594 L 446.523438 921.808594 L 214 921.808594 Z M 214 578.308594 " clip-rule="nonzero"></path></clipPath><clipPath id="620af14955"><rect x="0" width="535" y="0" height="69"></rect></clipPath></defs><path stroke-linecap="round" transform="matrix(0, 0.75, -0.75, 0, 504.724982, 569.097579)" fill="none" stroke-linejoin="miter" d="M 2.000103 1.997893 L 480.411603 1.997893 " stroke="#ffffff" stroke-width="4" stroke-opacity="1" stroke-miterlimit="4"></path><g clip-path="url(#d769fef428)"><path fill="#bff746" d="M 242.628906 800.765625 L 230.914062 785.863281 C 201.296875 748.191406 213.921875 692.796875 256.933594 671.667969 L 446.636719 578.476562 L 446.636719 616.839844 C 446.636719 646.179688 429.878906 672.957031 403.5 685.808594 L 277.390625 747.265625 C 268.210938 751.738281 260.171875 758.292969 254.097656 766.503906 C 248.003906 774.753906 242.765625 786.0625 243.171875 800.332031 C 247.332031 797.035156 251.929688 794.113281 256.929688 791.660156 L 446.628906 698.464844 L 446.628906 736.828125 C 446.628906 766.171875 429.871094 792.945312 403.496094 805.800781 L 277.390625 867.25 C 268.210938 871.722656 260.171875 878.277344 254.097656 886.488281 C 247.835938 894.96875 242.472656 906.671875 243.222656 921.503906 L 230.914062 905.855469 C 204.886719 872.746094 211.46875 825.964844 242.628906 800.765625 Z M 365.847656 879.476562 L 446.570312 921.539062 L 446.542969 816.472656 L 366.003906 857.019531 C 356.820312 861.648438 356.734375 874.726562 365.847656 879.476562 Z M 365.847656 879.476562 " fill-opacity="1" fill-rule="nonzero"></path></g><g fill="#ffffff" fill-opacity="1"><g transform="translate(548.335954, 763.46341)"><g><path d="M 69.359375 -51.265625 C 75.140625 -50.035156 79.785156 -47.164062 83.296875 -42.65625 C 86.816406 -38.144531 88.578125 -32.992188 88.578125 -27.203125 C 88.578125 -18.847656 85.65625 -12.222656 79.8125 -7.328125 C 73.976562 -2.441406 65.835938 0 55.390625 0 L 8.828125 0 L 8.828125 -99.96875 L 53.828125 -99.96875 C 63.984375 -99.96875 71.929688 -97.640625 77.671875 -92.984375 C 83.421875 -88.335938 86.296875 -82.023438 86.296875 -74.046875 C 86.296875 -68.160156 84.753906 -63.269531 81.671875 -59.375 C 78.585938 -55.488281 74.484375 -52.785156 69.359375 -51.265625 Z M 33.1875 -59.53125 L 49.125 -59.53125 C 53.113281 -59.53125 56.175781 -60.40625 58.3125 -62.15625 C 60.445312 -63.914062 61.515625 -66.503906 61.515625 -69.921875 C 61.515625 -73.335938 60.445312 -75.945312 58.3125 -77.75 C 56.175781 -79.550781 53.113281 -80.453125 49.125 -80.453125 L 33.1875 -80.453125 Z M 51.125 -19.65625 C 55.207031 -19.65625 58.363281 -20.578125 60.59375 -22.421875 C 62.820312 -24.273438 63.9375 -26.957031 63.9375 -30.46875 C 63.9375 -33.988281 62.773438 -36.742188 60.453125 -38.734375 C 58.128906 -40.722656 54.925781 -41.71875 50.84375 -41.71875 L 33.1875 -41.71875 L 33.1875 -19.65625 Z M 51.125 -19.65625 "></path></g></g></g><g fill="#ffffff" fill-opacity="1"><g transform="translate(642.181607, 763.46341)"><g><path d="M 59.8125 0 L 39.015625 -37.734375 L 33.1875 -37.734375 L 33.1875 0 L 8.828125 0 L 8.828125 -99.96875 L 49.703125 -99.96875 C 57.578125 -99.96875 64.289062 -98.585938 69.84375 -95.828125 C 75.40625 -93.078125 79.5625 -89.304688 82.3125 -84.515625 C 85.0625 -79.722656 86.4375 -74.382812 86.4375 -68.5 C 86.4375 -61.851562 84.5625 -55.914062 80.8125 -50.6875 C 77.0625 -45.46875 71.53125 -41.769531 64.21875 -39.59375 L 87.296875 0 Z M 33.1875 -54.96875 L 48.28125 -54.96875 C 52.738281 -54.96875 56.082031 -56.054688 58.3125 -58.234375 C 60.539062 -60.421875 61.65625 -63.507812 61.65625 -67.5 C 61.65625 -71.300781 60.539062 -74.289062 58.3125 -76.46875 C 56.082031 -78.65625 52.738281 -79.75 48.28125 -79.75 L 33.1875 -79.75 Z M 33.1875 -54.96875 "></path></g></g></g><g fill="#ffffff" fill-opacity="1"><g transform="translate(735.030422, 763.46341)"><g><path d="M 71.0625 -17.65625 L 33.75 -17.65625 L 27.765625 0 L 2.28125 0 L 38.453125 -99.96875 L 66.640625 -99.96875 L 102.8125 0 L 77.046875 0 Z M 64.796875 -36.453125 L 52.40625 -73.046875 L 40.15625 -36.453125 Z M 64.796875 -36.453125 "></path></g></g></g><g fill="#ffffff" fill-opacity="1"><g transform="translate(839.983756, 763.46341)"><g><path d="M 98.265625 0 L 73.90625 0 L 33.1875 -61.65625 L 33.1875 0 L 8.828125 0 L 8.828125 -99.96875 L 33.1875 -99.96875 L 73.90625 -38.015625 L 73.90625 -99.96875 L 98.265625 -99.96875 Z M 98.265625 0 "></path></g></g></g><g fill="#ffffff" fill-opacity="1"><g transform="translate(947.073163, 763.46341)"><g><path d="M 46.28125 -99.96875 C 56.820312 -99.96875 66.03125 -97.878906 73.90625 -93.703125 C 81.789062 -89.523438 87.890625 -83.660156 92.203125 -76.109375 C 96.523438 -68.566406 98.6875 -59.859375 98.6875 -49.984375 C 98.6875 -40.203125 96.523438 -31.515625 92.203125 -23.921875 C 87.890625 -16.328125 81.769531 -10.441406 73.84375 -6.265625 C 65.914062 -2.085938 56.726562 0 46.28125 0 L 8.828125 0 L 8.828125 -99.96875 Z M 44.71875 -21.078125 C 53.925781 -21.078125 61.09375 -23.59375 66.21875 -28.625 C 71.34375 -33.65625 73.90625 -40.773438 73.90625 -49.984375 C 73.90625 -59.191406 71.34375 -66.359375 66.21875 -71.484375 C 61.09375 -76.609375 53.925781 -79.171875 44.71875 -79.171875 L 33.1875 -79.171875 L 33.1875 -21.078125 Z M 44.71875 -21.078125 "></path></g></g></g><g fill="#ffffff" fill-opacity="1"><g transform="translate(1050.602452, 763.46341)"><g><path d="M 33.1875 -80.453125 L 33.1875 -60.234375 L 65.796875 -60.234375 L 65.796875 -41.4375 L 33.1875 -41.4375 L 33.1875 -19.515625 L 70.0625 -19.515625 L 70.0625 0 L 8.828125 0 L 8.828125 -99.96875 L 70.0625 -99.96875 L 70.0625 -80.453125 Z M 33.1875 -80.453125 "></path></g></g></g><g fill="#ffffff" fill-opacity="1"><g transform="translate(1127.644208, 763.46341)"><g><path d="M 70.0625 0 L 49.703125 -30.625 L 31.75 0 L 4.125 0 L 36.171875 -50.84375 L 3.421875 -99.96875 L 31.75 -99.96875 L 51.828125 -69.78125 L 69.5 -99.96875 L 97.125 -99.96875 L 65.359375 -49.5625 L 98.40625 0 Z M 70.0625 0 "></path></g></g></g><g fill="#ffffff" fill-opacity="1"><g transform="translate(1229.464619, 763.46341)"><g><path d="M 71.0625 -17.65625 L 33.75 -17.65625 L 27.765625 0 L 2.28125 0 L 38.453125 -99.96875 L 66.640625 -99.96875 L 102.8125 0 L 77.046875 0 Z M 64.796875 -36.453125 L 52.40625 -73.046875 L 40.15625 -36.453125 Z M 64.796875 -36.453125 "></path></g></g></g><g transform="matrix(1, 0, 0, 1, 559, 795)"><g clip-path="url(#620af14955)"><g fill="#ffffff" fill-opacity="1"><g transform="translate(0.477427, 51.621853)"><g><path d="M 14.25 -33.78125 C 17.9375 -33.78125 21.128906 -33.09375 23.828125 -31.71875 C 26.523438 -30.34375 28.59375 -28.378906 30.03125 -25.828125 C 31.46875 -23.273438 32.1875 -20.269531 32.1875 -16.8125 C 32.1875 -13.351562 31.46875 -10.351562 30.03125 -7.8125 C 28.59375 -5.28125 26.523438 -3.34375 23.828125 -2 C 21.128906 -0.664062 17.9375 0 14.25 0 L 3.734375 0 L 3.734375 -33.78125 Z M 14.25 -3.640625 C 18.613281 -3.640625 21.941406 -4.789062 24.234375 -7.09375 C 26.523438 -9.40625 27.671875 -12.644531 27.671875 -16.8125 C 27.671875 -21.019531 26.515625 -24.300781 24.203125 -26.65625 C 21.898438 -29.019531 18.582031 -30.203125 14.25 -30.203125 L 8.140625 -30.203125 L 8.140625 -3.640625 Z M 14.25 -3.640625 "></path></g></g></g><g fill="#ffffff" fill-opacity="1"><g transform="translate(45.313117, 51.621853)"><g><path d="M 8.140625 -33.78125 L 8.140625 0 L 3.734375 0 L 3.734375 -33.78125 Z M 8.140625 -33.78125 "></path></g></g></g><g fill="#ffffff" fill-opacity="1"><g transform="translate(67.804409, 51.621853)"><g><path d="M 29.328125 -23.984375 C 28.390625 -25.960938 27.03125 -27.492188 25.25 -28.578125 C 23.476562 -29.660156 21.410156 -30.203125 19.046875 -30.203125 C 16.691406 -30.203125 14.566406 -29.660156 12.671875 -28.578125 C 10.785156 -27.492188 9.300781 -25.941406 8.21875 -23.921875 C 7.132812 -21.898438 6.59375 -19.566406 6.59375 -16.921875 C 6.59375 -14.265625 7.132812 -11.9375 8.21875 -9.9375 C 9.300781 -7.9375 10.785156 -6.394531 12.671875 -5.3125 C 14.566406 -4.226562 16.691406 -3.6875 19.046875 -3.6875 C 22.335938 -3.6875 25.050781 -4.671875 27.1875 -6.640625 C 29.320312 -8.609375 30.566406 -11.273438 30.921875 -14.640625 L 17.453125 -14.640625 L 17.453125 -18.21875 L 35.625 -18.21875 L 35.625 -14.828125 C 35.363281 -12.046875 34.488281 -9.5 33 -7.1875 C 31.519531 -4.882812 29.566406 -3.0625 27.140625 -1.71875 C 24.710938 -0.375 22.015625 0.296875 19.046875 0.296875 C 15.910156 0.296875 13.050781 -0.4375 10.46875 -1.90625 C 7.882812 -3.382812 5.835938 -5.429688 4.328125 -8.046875 C 2.828125 -10.660156 2.078125 -13.617188 2.078125 -16.921875 C 2.078125 -20.210938 2.828125 -23.175781 4.328125 -25.8125 C 5.835938 -28.445312 7.882812 -30.5 10.46875 -31.96875 C 13.050781 -33.4375 15.910156 -34.171875 19.046875 -34.171875 C 22.628906 -34.171875 25.800781 -33.28125 28.5625 -31.5 C 31.332031 -29.726562 33.347656 -27.222656 34.609375 -23.984375 Z M 29.328125 -23.984375 "></path></g></g></g><g fill="#ffffff" fill-opacity="1"><g transform="translate(116.081401, 51.621853)"><g><path d="M 8.140625 -33.78125 L 8.140625 0 L 3.734375 0 L 3.734375 -33.78125 Z M 8.140625 -33.78125 "></path></g></g></g><g fill="#ffffff" fill-opacity="1"><g transform="translate(138.572693, 51.621853)"><g><path d="M 24.53125 -33.78125 L 24.53125 -30.203125 L 15.3125 -30.203125 L 15.3125 0 L 10.90625 0 L 10.90625 -30.203125 L 1.640625 -30.203125 L 1.640625 -33.78125 Z M 24.53125 -33.78125 "></path></g></g></g><g fill="#ffffff" fill-opacity="1"><g transform="translate(175.362456, 51.621853)"><g><path d="M 23.703125 -7.515625 L 8.96875 -7.515625 L 6.25 0 L 1.59375 0 L 13.8125 -33.59375 L 18.90625 -33.59375 L 31.0625 0 L 26.421875 0 Z M 22.4375 -11.09375 L 16.328125 -28.15625 L 10.234375 -11.09375 Z M 22.4375 -11.09375 "></path></g></g></g><g fill="#ffffff" fill-opacity="1"><g transform="translate(218.598645, 51.621853)"><g><path d="M 8.140625 -3.59375 L 19.96875 -3.59375 L 19.96875 0 L 3.734375 0 L 3.734375 -33.78125 L 8.140625 -33.78125 Z M 8.140625 -3.59375 "></path></g></g></g><g fill="#ffffff" fill-opacity="1"><g transform="translate(250.105223, 51.621853)"><g></g></g></g><g fill="#ffffff" fill-opacity="1"><g transform="translate(273.614376, 51.621853)"><g><path d="M 23.703125 -7.515625 L 8.96875 -7.515625 L 6.25 0 L 1.59375 0 L 13.8125 -33.59375 L 18.90625 -33.59375 L 31.0625 0 L 26.421875 0 Z M 22.4375 -11.09375 L 16.328125 -28.15625 L 10.234375 -11.09375 Z M 22.4375 -11.09375 "></path></g></g></g><g fill="#ffffff" fill-opacity="1"><g transform="translate(316.850564, 51.621853)"><g><path d="M 29.328125 -23.984375 C 28.390625 -25.960938 27.03125 -27.492188 25.25 -28.578125 C 23.476562 -29.660156 21.410156 -30.203125 19.046875 -30.203125 C 16.691406 -30.203125 14.566406 -29.660156 12.671875 -28.578125 C 10.785156 -27.492188 9.300781 -25.941406 8.21875 -23.921875 C 7.132812 -21.898438 6.59375 -19.566406 6.59375 -16.921875 C 6.59375 -14.265625 7.132812 -11.9375 8.21875 -9.9375 C 9.300781 -7.9375 10.785156 -6.394531 12.671875 -5.3125 C 14.566406 -4.226562 16.691406 -3.6875 19.046875 -3.6875 C 22.335938 -3.6875 25.050781 -4.671875 27.1875 -6.640625 C 29.320312 -8.609375 30.566406 -11.273438 30.921875 -14.640625 L 17.453125 -14.640625 L 17.453125 -18.21875 L 35.625 -18.21875 L 35.625 -14.828125 C 35.363281 -12.046875 34.488281 -9.5 33 -7.1875 C 31.519531 -4.882812 29.566406 -3.0625 27.140625 -1.71875 C 24.710938 -0.375 22.015625 0.296875 19.046875 0.296875 C 15.910156 0.296875 13.050781 -0.4375 10.46875 -1.90625 C 7.882812 -3.382812 5.835938 -5.429688 4.328125 -8.046875 C 2.828125 -10.660156 2.078125 -13.617188 2.078125 -16.921875 C 2.078125 -20.210938 2.828125 -23.175781 4.328125 -25.8125 C 5.835938 -28.445312 7.882812 -30.5 10.46875 -31.96875 C 13.050781 -33.4375 15.910156 -34.171875 19.046875 -34.171875 C 22.628906 -34.171875 25.800781 -33.28125 28.5625 -31.5 C 31.332031 -29.726562 33.347656 -27.222656 34.609375 -23.984375 Z M 29.328125 -23.984375 "></path></g></g></g><g fill="#ffffff" fill-opacity="1"><g transform="translate(365.127556, 51.621853)"><g><path d="M 8.140625 -30.203125 L 8.140625 -18.90625 L 20.453125 -18.90625 L 20.453125 -15.265625 L 8.140625 -15.265625 L 8.140625 -3.640625 L 21.90625 -3.640625 L 21.90625 0 L 3.734375 0 L 3.734375 -33.828125 L 21.90625 -33.828125 L 21.90625 -30.203125 Z M 8.140625 -30.203125 "></path></g></g></g><g fill="#ffffff" fill-opacity="1"><g transform="translate(400.560157, 51.621853)"><g><path d="M 30.296875 0 L 25.875 0 L 8.140625 -26.90625 L 8.140625 0 L 3.734375 0 L 3.734375 -33.828125 L 8.140625 -33.828125 L 25.875 -6.984375 L 25.875 -33.828125 L 30.296875 -33.828125 Z M 30.296875 0 "></path></g></g></g><g fill="#ffffff" fill-opacity="1"><g transform="translate(445.201967, 51.621853)"><g><path d="M 2.078125 -16.921875 C 2.078125 -20.210938 2.820312 -23.175781 4.3125 -25.8125 C 5.800781 -28.445312 7.828125 -30.503906 10.390625 -31.984375 C 12.960938 -33.472656 15.816406 -34.21875 18.953125 -34.21875 C 22.640625 -34.21875 25.851562 -33.328125 28.59375 -31.546875 C 31.34375 -29.773438 33.347656 -27.253906 34.609375 -23.984375 L 29.328125 -23.984375 C 28.390625 -26.023438 27.039062 -27.59375 25.28125 -28.6875 C 23.519531 -29.789062 21.410156 -30.34375 18.953125 -30.34375 C 16.585938 -30.34375 14.46875 -29.789062 12.59375 -28.6875 C 10.726562 -27.59375 9.257812 -26.035156 8.1875 -24.015625 C 7.125 -21.992188 6.59375 -19.628906 6.59375 -16.921875 C 6.59375 -14.234375 7.125 -11.878906 8.1875 -9.859375 C 9.257812 -7.835938 10.726562 -6.273438 12.59375 -5.171875 C 14.46875 -4.078125 16.585938 -3.53125 18.953125 -3.53125 C 21.410156 -3.53125 23.519531 -4.070312 25.28125 -5.15625 C 27.039062 -6.238281 28.390625 -7.800781 29.328125 -9.84375 L 34.609375 -9.84375 C 33.347656 -6.613281 31.34375 -4.113281 28.59375 -2.34375 C 25.851562 -0.582031 22.640625 0.296875 18.953125 0.296875 C 15.816406 0.296875 12.960938 -0.4375 10.390625 -1.90625 C 7.828125 -3.382812 5.800781 -5.429688 4.3125 -8.046875 C 2.820312 -10.660156 2.078125 -13.617188 2.078125 -16.921875 Z M 2.078125 -16.921875 "></path></g></g></g><g fill="#ffffff" fill-opacity="1"><g transform="translate(493.18816, 51.621853)"><g><path d="M 27.390625 -33.78125 L 16.375 -12.75 L 16.375 0 L 11.96875 0 L 11.96875 -12.75 L 0.921875 -33.78125 L 5.8125 -33.78125 L 14.15625 -16.671875 L 22.484375 -33.78125 Z M 27.390625 -33.78125 "></path></g></g></g></g></g></svg>